<?xml version="1.0" standalone="no"?>
<!DOCTYPE svg PUBLIC "-//W3C//DTD SVG 1.0//EN" "http://www.w3.org/TR/2001/REC-SVG-20010904/DTD/svg10.dtd">
<svg xmlns="http://www.w3.org/2000/svg" xmlns:xlink="http://www.w3.org/1999/xlink" id="body_1" width="400" height="400">

<g transform="matrix(1 0 0 1.1142061 -0 22.89772)">
	<g>
        <path d="M222.993 8.751L222.17 9.443L222.099 17.415L222.028 25.386L219.254 25.52L216.48 25.655L215.458 26.752C 214.067 28.245 213.835 29.55 213.835 35.876L213.835 35.876L213.835 41.101L208.749 41.101L203.662 41.101L203.577 34.856C 203.48 27.677 203.356 27.248 200.984 25.854L200.984 25.854L199.731 25.118L188.046 25.118L176.36 25.118L175.11 25.852C 174.182 26.398 173.68 26.948 173.162 27.987L173.162 27.987L172.465 29.387L172.465 47.744C 172.465 67.573 172.437 67.171 173.888 68.726C 175.181 70.113 176.191 70.383 180.081 70.383C 183.124 70.383 183.716 70.449 183.853 70.808C 183.943 71.041 184.016 80.776 184.016 92.44L184.016 92.44L184.016 113.647L183.277 113.933C 182.099 114.39 173.579 114.129 173.261 113.626C 173.12 113.404 173.008 109.525 173.006 104.754L173.006 104.754L173.002 96.277L172.227 95.054C 170.704 92.654 170.865 92.679 157.135 92.686C 140.074 92.694 141.034 91.935 141.034 105.402L141.034 105.402L141.034 113.844L140.296 114.031C 139.559 114.219 131.101 114.152 130.235 113.952C 129.819 113.856 129.772 113.077 129.698 105.211C 129.606 95.39 129.564 95.181 127.354 93.62L127.354 93.62L126.214 92.814L114.215 92.732C 99.862 92.634 99.4 92.72 98.02 95.758C 97.251 97.451 97.255 148.909 98.024 150.571C 99.206 153.123 100.448 153.66 105.167 153.66C 107.14 153.66 108.945 153.734 109.179 153.823C 109.562 153.97 109.604 156.18 109.604 176.069L109.604 176.069L109.604 198.151L99.649 209.821C 94.174 216.239 89.446 221.702 89.142 221.961C 88.626 222.401 87.103 222.431 65.535 222.431C 41.177 222.431 41.594 222.41 40.204 223.724C 38.239 225.581 38.415 219.601 38.415 284.606L38.415 284.606L38.415 342.774L37.369 343.434C 33.501 345.876 34.199 351.577 38.524 352.862C 40.523 353.455 363.773 353.462 365.746 352.869C 371.078 351.264 370.315 342.78 364.838 342.78C 364.4 342.78 363.851 342.59 363.618 342.357C 363.234 341.973 363.195 334.099 363.198 258.534C 363.202 168.049 363.301 174.516 361.888 172.906C 360.554 171.386 360.597 171.39 346.032 171.39C 327.566 171.39 328.558 170.748 328.549 182.711C 328.543 188.987 328.49 189.889 328.118 190.032C 327.564 190.244 320.656 190.244 320.103 190.032C 319.73 189.889 319.678 188.98 319.678 182.595C 319.678 174.133 319.555 173.594 317.303 172.166L317.303 172.166L316.08 171.39L302.584 171.39C 284.036 171.39 285.039 170.743 285.029 182.711C 285.024 188.987 284.971 189.889 284.599 190.032C 284.045 190.244 277.137 190.244 276.583 190.032C 276.21 189.889 276.158 188.983 276.158 182.627C 276.158 175.972 276.115 175.283 275.619 174.126C 275.084 172.879 275.08 172.422 275.149 121.692L275.149 121.692L275.218 70.517L279.113 70.382C 284.234 70.205 285.587 69.452 286.358 66.353C 286.833 64.445 286.624 29.102 286.132 28.207C 284.434 25.112 284.519 25.13 270.908 25.038L270.908 25.038L259.077 24.958L257.813 25.922C 255.68 27.551 255.626 27.753 255.473 34.788L255.473 34.788L255.339 40.967L250.235 40.967L245.131 40.967L244.997 34.788C 244.8 25.755 244.774 25.724 237.389 25.52L237.389 25.52L232.505 25.386L232.426 24.177L232.347 22.968L234.441 22.968L236.535 22.968L243.653 19.66C 251.385 16.066 251.797 15.819 251.145 15.167C 250.918 14.94 246.896 13.247 242.207 11.406L242.207 11.406L233.683 8.059L228.749 8.059C 223.84 8.059 223.812 8.062 222.993 8.751M264.541 120.788L264.609 171.059L264.003 171.221C 263.211 171.433 248.929 171.439 248.377 171.227C 247.731 170.979 247.731 154.071 248.377 153.823C 248.61 153.734 250.521 153.66 252.622 153.66C 257.143 153.66 258.377 153.166 259.464 150.919L259.464 150.919L260.04 149.73L260.04 123.237C 260.04 95.249 260.068 95.874 258.747 94.459C 257.093 92.688 257.124 92.692 244.022 92.686C 230.138 92.679 230.887 92.535 228.287 95.703C 228.257 95.739 228.166 99.819 228.085 104.768L228.085 104.768L227.938 113.768L222.804 113.902C 219.981 113.976 217.481 113.999 217.25 113.953C 216.881 113.88 216.818 112.811 216.742 105.222C 216.644 95.413 216.59 95.157 214.281 93.556L214.281 93.556L213.21 92.814L203.919 92.68L194.627 92.545L194.557 81.8C 194.518 75.891 194.545 70.904 194.616 70.718C 194.719 70.449 201.836 70.395 229.609 70.449L229.609 70.449L264.473 70.517L264.541 120.788zM237.05 153.823C 237.702 154.074 237.702 342.367 237.05 342.617C 236.426 342.857 205.698 342.808 205.319 342.567C 205.075 342.412 204.974 337.799 204.902 323.565C 204.793 302.079 204.866 302.814 202.305 297.515C 193.598 279.5 169.083 277.302 157.375 293.486C 155.958 295.445 154.333 298.81 153.478 301.558L153.478 301.558L152.73 303.962L152.65 323.036C 152.577 340.45 152.532 342.138 152.124 342.445C 151.653 342.798 121.407 342.963 120.506 342.617C 119.932 342.397 119.843 154.069 120.416 153.838C 120.9 153.643 236.541 153.628 237.05 153.823M174.882 165.912C 168.926 167.511 164.46 171.812 162.222 178.106C 161.609 179.83 161.6 180.024 161.523 193.418L161.523 193.418L161.444 206.985L162.052 208.039C 162.427 208.691 163.112 209.332 163.843 209.718L163.843 209.718L165.027 210.343L178.484 210.341C 198.018 210.339 196.188 212.199 196.055 192.478L196.055 192.478L195.968 179.584L195.211 177.437C 192.159 168.789 183.163 163.689 174.882 165.912M265.683 188.784C 265.686 200.957 265.397 200.736 281.201 200.616C 293.032 200.526 293.095 200.515 294.627 198.202L294.627 198.202L295.366 197.086L295.445 189.476L295.524 181.867L302.362 181.867L309.201 181.867L309.202 188.784C 309.205 200.957 308.916 200.736 324.72 200.616C 336.551 200.526 336.614 200.515 338.146 198.202L338.146 198.202L338.885 197.086L338.964 189.476L339.043 181.867L345.882 181.867L352.72 181.867L352.72 262.161C 352.72 335.13 352.681 342.469 352.295 342.617C 351.741 342.83 249.349 342.824 248.556 342.611L248.556 342.611L247.952 342.449L247.952 262.337C 247.952 218.276 248.032 182.145 248.131 182.046C 248.229 181.948 252.218 181.867 256.996 181.867L256.996 181.867L265.682 181.867L265.683 188.784zM263.884 214.393C 262.197 215.474 262.159 215.819 262.246 229.159C 262.351 245.315 260.392 243.489 277.751 243.611C 291.84 243.71 292.171 243.682 293.497 242.299L293.497 242.299L294.291 241.469L294.366 228.997C 294.449 215.195 294.475 215.423 292.734 214.361C 291.365 213.526 265.192 213.555 263.884 214.393M310.388 214.095C 308.195 214.982 308.06 215.954 308.174 230.087C 308.269 241.873 308.281 241.964 309.933 243.046C 311.013 243.754 336.362 243.919 338.169 243.23C 340.429 242.368 340.361 242.815 340.358 228.744C 340.354 215.259 340.385 215.533 338.774 214.447L338.774 214.447L337.865 213.835L324.406 213.852C 317.004 213.861 310.695 213.971 310.388 214.095M109.335 278.845C 109.335 329.586 109.267 342.517 108.999 342.536C 107.852 342.619 49.5 342.639 49.228 342.556C 48.96 342.475 48.892 331.267 48.892 287.687L48.892 287.687L48.892 232.92L70.853 232.847C 92.378 232.775 92.833 232.763 93.754 232.227C 94.278 231.923 97.834 228.028 101.787 223.43C 105.688 218.891 108.982 215.178 109.107 215.178C 109.233 215.178 109.335 243.828 109.335 278.845M66.168 251.196C 64.481 252.277 64.442 252.622 64.529 265.963C 64.634 282.118 62.675 280.292 80.035 280.414C 94.123 280.513 94.455 280.485 95.78 279.102L95.78 279.102L96.575 278.273L96.65 265.8C 96.733 251.998 96.758 252.226 95.017 251.164C 93.648 250.33 67.476 250.358 66.168 251.196M265.071 257.07C 263.798 257.323 262.804 258.241 262.459 259.483C 261.908 261.465 262.128 283.385 262.711 284.67C 263.632 286.697 263.142 286.636 278.361 286.631C 293.101 286.627 292.722 286.666 293.813 285.047L293.813 285.047L294.426 284.138L294.425 271.888C 294.424 258.323 294.462 258.632 292.637 257.436C 291.846 256.917 267.469 256.594 265.071 257.07M311.066 257.066C 308.181 257.962 308.261 257.543 308.261 271.86C 308.261 283.361 308.291 284.133 308.767 284.92C 309.84 286.692 309.322 286.635 324.519 286.635L324.519 286.635L338.277 286.635L339.32 285.592L340.363 284.549L340.363 272.001C 340.363 258.142 340.408 258.523 338.647 257.457C 337.75 256.914 312.699 256.559 311.066 257.066M67.355 293.873C 66.082 294.126 65.087 295.045 64.743 296.286C 64.192 298.269 64.411 320.188 64.995 321.473C 65.915 323.5 65.425 323.439 80.645 323.435C 95.384 323.43 95.006 323.469 96.097 321.85L96.097 321.85L96.709 320.941L96.708 308.691C 96.707 295.126 96.745 295.435 94.921 294.239C 94.13 293.72 69.753 293.397 67.355 293.873" stroke="none" fill="#050505" fill-rule="nonzero" />
        <path d="M0 179.449L0 358.899L200 358.899L400 358.899L400 179.449L400 0L200 0L0 0L0 179.449zM242.207 11.406C 246.896 13.247 250.918 14.94 251.145 15.167C 251.797 15.819 251.385 16.066 243.653 19.66L243.653 19.66L236.535 22.968L234.441 22.968L232.347 22.968L232.426 24.177L232.505 25.386L237.389 25.52C 244.774 25.724 244.8 25.755 244.997 34.788L244.997 34.788L245.131 40.967L250.235 40.967L255.339 40.967L255.473 34.788C 255.626 27.753 255.68 27.551 257.813 25.922L257.813 25.922L259.077 24.958L270.908 25.038C 284.519 25.13 284.434 25.112 286.132 28.207C 286.624 29.102 286.833 64.445 286.358 66.353C 285.587 69.452 284.234 70.205 279.113 70.382L279.113 70.382L275.218 70.517L275.149 121.692C 275.08 172.422 275.084 172.879 275.619 174.126C 276.115 175.283 276.158 175.972 276.158 182.627C 276.158 188.983 276.21 189.889 276.583 190.032C 277.137 190.244 284.045 190.244 284.599 190.032C 284.971 189.889 285.024 188.987 285.029 182.711C 285.036 174.821 285.139 174.237 286.803 172.683C 288.174 171.402 288.322 171.39 302.584 171.39L302.584 171.39L316.08 171.39L317.303 172.166C 319.555 173.594 319.678 174.133 319.678 182.595C 319.678 188.98 319.73 189.889 320.103 190.032C 320.656 190.244 327.564 190.244 328.118 190.032C 328.49 189.889 328.543 188.987 328.549 182.711C 328.558 170.748 327.566 171.39 346.032 171.39C 360.597 171.39 360.554 171.386 361.888 172.906C 363.301 174.516 363.202 168.049 363.198 258.534C 363.195 334.099 363.234 341.973 363.618 342.357C 363.851 342.59 364.4 342.78 364.838 342.78C 370.315 342.78 371.078 351.264 365.746 352.869C 363.773 353.462 40.523 353.455 38.524 352.862C 34.199 351.577 33.501 345.876 37.369 343.434L37.369 343.434L38.415 342.774L38.415 284.606C 38.415 219.601 38.239 225.581 40.204 223.724C 41.594 222.41 41.177 222.431 65.535 222.431C 87.103 222.431 88.626 222.401 89.142 221.961C 89.446 221.702 94.174 216.239 99.649 209.821L99.649 209.821L109.604 198.151L109.604 176.069C 109.604 156.18 109.562 153.97 109.179 153.823C 108.945 153.734 107.14 153.66 105.167 153.66C 100.448 153.66 99.206 153.123 98.024 150.571C 97.255 148.909 97.251 97.451 98.02 95.758C 99.4 92.72 99.862 92.634 114.215 92.732L114.215 92.732L126.214 92.814L127.354 93.62C 129.564 95.181 129.606 95.39 129.698 105.211C 129.772 113.077 129.819 113.856 130.235 113.952C 131.101 114.152 139.559 114.219 140.296 114.031L140.296 114.031L141.034 113.844L141.034 105.402C 141.034 91.935 140.074 92.694 157.135 92.686C 170.865 92.679 170.704 92.654 172.227 95.054L172.227 95.054L173.002 96.277L173.006 104.754C 173.008 109.525 173.12 113.404 173.261 113.626C 173.579 114.129 182.099 114.39 183.277 113.933L183.277 113.933L184.016 113.647L184.016 92.44C 184.016 80.776 183.943 71.041 183.853 70.808C 183.716 70.449 183.124 70.383 180.081 70.383C 176.191 70.383 175.181 70.113 173.888 68.726C 172.437 67.171 172.465 67.573 172.465 47.744L172.465 47.744L172.465 29.387L173.162 27.987C 173.68 26.948 174.182 26.398 175.11 25.852L175.11 25.852L176.36 25.118L188.046 25.118L199.731 25.118L200.984 25.854C 203.356 27.248 203.48 27.677 203.577 34.856L203.577 34.856L203.662 41.101L208.749 41.101L213.835 41.101L213.835 35.876C 213.835 29.55 214.067 28.245 215.458 26.752L215.458 26.752L216.48 25.655L219.254 25.52L222.028 25.386L222.099 17.415L222.17 9.443L222.993 8.751C 223.812 8.062 223.84 8.059 228.749 8.059L228.749 8.059L233.683 8.059L242.207 11.406zM194.616 70.718C 194.545 70.904 194.518 75.891 194.557 81.8L194.557 81.8L194.627 92.545L203.919 92.68L213.21 92.814L214.281 93.556C 216.59 95.157 216.644 95.413 216.742 105.222C 216.818 112.811 216.881 113.88 217.25 113.953C 217.481 113.999 219.981 113.976 222.804 113.902L222.804 113.902L227.938 113.768L228.085 104.768C 228.166 99.819 228.257 95.739 228.287 95.703C 230.887 92.535 230.138 92.679 244.022 92.686C 257.124 92.692 257.093 92.688 258.747 94.459C 260.068 95.874 260.04 95.249 260.04 123.237L260.04 123.237L260.04 149.73L259.464 150.919C 258.377 153.166 257.143 153.66 252.622 153.66C 250.521 153.66 248.61 153.734 248.377 153.823C 247.731 154.071 247.731 170.979 248.377 171.227C 248.929 171.439 263.211 171.433 264.003 171.221L264.003 171.221L264.609 171.059L264.541 120.788L264.473 70.517L229.609 70.449C 201.836 70.395 194.719 70.449 194.616 70.718M120.416 153.838C 119.843 154.069 119.932 342.397 120.506 342.617C 121.407 342.963 151.653 342.798 152.124 342.445C 152.532 342.138 152.577 340.45 152.65 323.036L152.65 323.036L152.73 303.962L153.478 301.558C 158.852 284.292 178.531 277.113 193.367 287.008C 198.391 290.359 202.59 296.354 204.205 302.485C 204.795 304.726 204.808 305.113 204.902 323.565C 204.974 337.799 205.075 342.412 205.319 342.567C 205.698 342.808 236.426 342.857 237.05 342.617C 237.702 342.367 237.702 154.074 237.05 153.823C 236.541 153.628 120.9 153.643 120.416 153.838M183.046 166.01C 188.783 167.477 193.14 171.57 195.211 177.437L195.211 177.437L195.968 179.584L196.055 192.478C 196.155 207.249 196.15 207.307 194.85 208.746C 193.422 210.327 193.292 210.339 178.484 210.341L178.484 210.341L165.027 210.343L163.843 209.718C 163.112 209.332 162.427 208.691 162.052 208.039L162.052 208.039L161.444 206.985L161.523 193.418C 161.6 180.024 161.609 179.83 162.222 178.106C 165.555 168.735 174.159 163.737 183.046 166.01M248.131 182.046C 248.032 182.145 247.952 218.276 247.952 262.337L247.952 262.337L247.952 342.449L248.556 342.611C 249.349 342.824 351.741 342.83 352.295 342.617C 352.681 342.469 352.72 335.13 352.72 262.161L352.72 262.161L352.72 181.867L345.882 181.867L339.043 181.867L338.964 189.476L338.885 197.086L338.146 198.202C 336.614 200.515 336.551 200.526 324.72 200.616C 308.916 200.736 309.205 200.957 309.202 188.784L309.202 188.784L309.201 181.867L302.362 181.867L295.524 181.867L295.445 189.476L295.366 197.086L294.627 198.202C 293.095 200.515 293.032 200.526 281.201 200.616C 265.397 200.736 265.686 200.957 265.683 188.784L265.683 188.784L265.682 181.867L256.996 181.867C 252.218 181.867 248.229 181.948 248.131 182.046M292.734 214.361C 294.475 215.423 294.449 215.195 294.366 228.997L294.366 228.997L294.291 241.469L293.497 242.299C 292.171 243.682 291.84 243.71 277.751 243.611C 260.392 243.489 262.351 245.315 262.246 229.159C 262.159 215.819 262.197 215.474 263.884 214.393C 265.192 213.555 291.365 213.526 292.734 214.361M338.774 214.447C 340.385 215.533 340.354 215.259 340.358 228.744C 340.361 242.815 340.429 242.368 338.169 243.23C 336.362 243.919 311.013 243.754 309.933 243.046C 308.281 241.964 308.269 241.873 308.174 230.087C 308.074 217.582 308.155 216.31 309.134 215.147C 310.212 213.865 310.156 213.87 324.406 213.852L324.406 213.852L337.865 213.835L338.774 214.447zM101.787 223.43C 97.834 228.028 94.278 231.923 93.754 232.227C 92.833 232.763 92.378 232.775 70.853 232.847L70.853 232.847L48.892 232.92L48.892 287.687C 48.892 331.267 48.96 342.475 49.228 342.556C 49.5 342.639 107.852 342.619 108.999 342.536C 109.395 342.507 109.503 215.178 109.107 215.178C 108.982 215.178 105.688 218.891 101.787 223.43M95.017 251.164C 96.758 252.226 96.733 251.998 96.65 265.8L96.65 265.8L96.575 278.273L95.78 279.102C 94.455 280.485 94.123 280.513 80.035 280.414C 62.675 280.292 64.634 282.118 64.529 265.963C 64.442 252.622 64.481 252.277 66.168 251.196C 67.476 250.358 93.648 250.33 95.017 251.164M292.637 257.436C 294.462 258.632 294.424 258.323 294.425 271.888L294.425 271.888L294.426 284.138L293.813 285.047C 292.722 286.666 293.101 286.627 278.361 286.631C 263.142 286.636 263.632 286.697 262.711 284.67C 262.128 283.385 261.908 261.465 262.459 259.483C 262.804 258.241 263.798 257.323 265.071 257.07C 267.469 256.594 291.846 256.917 292.637 257.436M338.647 257.457C 340.408 258.523 340.363 258.142 340.363 272.001L340.363 272.001L340.363 284.549L339.32 285.592L338.277 286.635L324.519 286.635C 309.322 286.635 309.84 286.692 308.767 284.92C 308.291 284.133 308.261 283.361 308.261 271.86C 308.261 257.543 308.181 257.962 311.066 257.066C 312.699 256.559 337.75 256.914 338.647 257.457M94.921 294.239C 96.745 295.435 96.707 295.126 96.708 308.691L96.708 308.691L96.709 320.941L96.097 321.85C 95.006 323.469 95.384 323.43 80.645 323.435C 65.425 323.439 65.915 323.5 64.995 321.473C 64.411 320.188 64.192 298.269 64.743 296.286C 65.087 295.045 66.082 294.126 67.355 293.873C 69.753 293.397 94.13 293.72 94.921 294.239" stroke="none" fill="#FBFBFB" fill-rule="nonzero" />
	</g>
</g>
</svg>